<svg width="223" height="38" viewBox="0 0 223 38" fill="none" xmlns="http://www.w3.org/2000/svg">
<path d="M18.3848 0.941396L0 19.3262L18.3848 37.7109L36.7696 19.3262L18.3848 0.941396Z" fill="#ED1C29"/>
<path d="M71.9119 19.3262C71.9119 15.4602 68.7779 12.3262 64.9119 12.3262C61.0459 12.3262 57.9119 15.4602 57.9119 19.3262C57.9119 23.1922 61.0459 26.3262 64.9119 26.3262C68.7779 26.3262 71.9119 23.1922 71.9119 19.3262Z" fill="#D7DF23"/>
<path d="M111.439 0.941396L93.0542 19.3262L111.439 37.7109L129.824 19.3262L111.439 0.941396Z" fill="#ED1C29"/>
<path d="M164.966 19.3262C164.966 15.4602 161.832 12.3262 157.966 12.3262C154.1 12.3262 150.966 15.4602 150.966 19.3262C150.966 23.1922 154.1 26.3262 157.966 26.3262C161.832 26.3262 164.966 23.1922 164.966 19.3262Z" fill="#D7DF23"/>
<path d="M204.493 0.941396L186.108 19.3262L204.493 37.7109L222.878 19.3262L204.493 0.941396Z" fill="#ED1C29"/>
</svg>
