<svg width="36" height="42" viewBox="0 0 36 42" fill="none" xmlns="http://www.w3.org/2000/svg">
<path d="M18 17.8359C20.4853 17.8359 22.5 15.8212 22.5 13.3359C22.5 10.8507 20.4853 8.83594 18 8.83594C15.5147 8.83594 13.5 10.8507 13.5 13.3359C13.5 15.8212 15.5147 17.8359 18 17.8359Z" fill="#D7DF28"/>
<path d="M29.25 13.3359C29.25 23.4609 18 31.3359 18 31.3359C18 31.3359 6.75 23.4609 6.75 13.3359C6.75 10.3523 7.93526 7.49077 10.045 5.38099C12.1548 3.2712 15.0163 2.08594 18 2.08594C20.9837 2.08594 23.8452 3.2712 25.955 5.38099C28.0647 7.49077 29.25 10.3523 29.25 13.3359V13.3359Z" stroke="#ED1C29" stroke-width="4" stroke-linecap="round"/>
<line x1="0.64502" y1="39.9551" x2="35.2671" y2="39.9551" stroke="#D7DF28" stroke-width="4"/>
</svg>
