<svg width="52" height="53" viewBox="0 0 52 53" fill="none" xmlns="http://www.w3.org/2000/svg">
<rect y="0.710938" width="52" height="52" rx="26" fill="#ED1C29"/>
<path d="M21.5858 37.7108H16C15.7348 37.7108 15.4804 37.6054 15.2929 37.4179C15.1054 37.2304 15 36.976 15 36.7108V31.125C15 30.9937 15.0259 30.8636 15.0761 30.7423C15.1264 30.621 15.2 30.5108 15.2929 30.4179L30.2929 15.4179C30.4804 15.2304 30.7348 15.125 31 15.125C31.2652 15.125 31.5196 15.2304 31.7071 15.4179L37.2929 21.0037C37.4804 21.1912 37.5858 21.4456 37.5858 21.7108C37.5858 21.976 37.4804 22.2304 37.2929 22.4179L22.2929 37.4179C22.2 37.5108 22.0898 37.5844 21.9685 37.6347C21.8471 37.6849 21.7171 37.7108 21.5858 37.7108Z" stroke="#F2F2F2" stroke-width="2" stroke-linecap="round" stroke-linejoin="round"/>
<path d="M27 18.7109L34 25.7109" stroke="#F2F2F2" stroke-width="2" stroke-linecap="round" stroke-linejoin="round"/>
<path d="M30 34.7109L35 29.7109L34 25.7109" stroke="#F2F2F2" stroke-width="2" stroke-linecap="round" stroke-linejoin="round"/>
<path d="M15.0635 30.7754L21.9365 37.6483" stroke="#F2F2F2" stroke-width="2" stroke-linecap="round" stroke-linejoin="round"/>
</svg>
