<svg width="114" height="114" viewBox="0 0 114 114" fill="none" xmlns="http://www.w3.org/2000/svg">
<g clip-path="url(#clip0_775_1539)">
<path d="M56.8711 85.3315C53.5617 85.3315 50.8711 82.6551 50.8711 79.3474C50.8711 76.0468 53.5545 73.3633 56.8711 73.3633C60.1804 73.3633 62.8711 76.0396 62.8711 79.3474C62.8711 82.648 60.1876 85.3315 56.8711 85.3315Z" fill="#D7DF28"/>
<path d="M87.7422 53.0737C84.4328 53.0737 81.7422 50.3973 81.7422 47.0896C81.7422 43.789 84.4256 41.1055 87.7422 41.1055C91.0515 41.1055 93.7422 43.7818 93.7422 47.0896C93.735 50.3901 91.0515 53.0737 87.7422 53.0737Z" fill="#D7DF28"/>
<path d="M26 53.0737C22.6906 53.0737 20 50.3973 20 47.0896C20 43.789 22.6835 41.1055 26 41.1055C29.3094 41.1055 32 43.7818 32 47.0896C31.9928 50.3901 29.3094 53.0737 26 53.0737Z" fill="#D7DF28"/>
<path d="M38.9677 72.0812C38.9677 76.6773 38.0624 81.2284 36.3035 85.4747C34.5447 89.7209 31.9667 93.5792 28.7167 96.8291C25.4668 100.079 21.6085 102.657 17.3623 104.416C13.116 106.175 8.56487 107.08 3.96875 107.08" stroke="#EC2227" stroke-width="12"/>
<path d="M74.7745 72.0812C74.7745 76.6773 75.6798 81.2284 77.4386 85.4747C79.1975 89.7209 81.7755 93.5792 85.0255 96.8291C88.2754 100.079 92.1337 102.657 96.3799 104.416C100.626 106.175 105.177 107.08 109.773 107.08" stroke="#EC2227" stroke-width="12"/>
<g clip-path="url(#clip1_775_1539)">
<path d="M50.9561 64.1803C50.9561 61.0863 51.3201 58.5383 52.0481 56.5363C52.7761 54.4736 53.6558 52.7446 54.6871 51.3493C55.7791 49.8933 56.9318 48.68 58.1451 47.7093C59.4191 46.7386 60.5718 45.7983 61.6031 44.8883C62.6951 43.9176 63.6051 42.856 64.3331 41.7033C65.0611 40.49 65.4251 39.0036 65.4251 37.2443C65.4251 34.8176 64.6668 32.9066 63.1501 31.5113C61.6941 30.0553 59.6011 29.3273 56.8711 29.3273C54.0198 29.3273 51.7751 30.116 50.1371 31.6933C48.5598 33.2706 47.6498 35.4243 47.4071 38.1543H35.9411C36.0624 35.3636 36.6084 32.8156 37.5791 30.5103C38.6104 28.205 40.0058 26.203 41.7651 24.5043C43.5851 22.8056 45.7084 21.5013 48.1351 20.5913C50.6224 19.6206 53.3828 19.1353 56.4161 19.1353C59.7528 19.1353 62.6951 19.56 65.2431 20.4093C67.7911 21.2586 69.9144 22.4416 71.6131 23.9583C73.3724 25.475 74.6768 27.295 75.5261 29.4183C76.4361 31.481 76.8911 33.7863 76.8911 36.3343C76.8911 38.943 76.5271 41.127 75.7991 42.8863C75.0711 44.6456 74.1308 46.1926 72.9781 47.5273C71.8861 48.8013 70.6728 49.954 69.3381 50.9853C68.0641 52.0166 66.8508 53.139 65.6981 54.3523C64.6061 55.5656 63.6961 56.9306 62.9681 58.4473C62.2401 59.964 61.8761 61.875 61.8761 64.1803H50.9561ZM56.4161 84.4733C54.2928 84.4733 52.5334 83.7756 51.1381 82.3803C49.8034 80.9243 49.1361 79.1953 49.1361 77.1933C49.1361 75.1913 49.8034 73.4926 51.1381 72.0973C52.5334 70.6413 54.2928 69.9133 56.4161 69.9133C58.5394 69.9133 60.2684 70.6413 61.6031 72.0973C62.9984 73.4926 63.6961 75.1913 63.6961 77.1933C63.6961 79.1953 62.9984 80.9243 61.6031 82.3803C60.2684 83.7756 58.5394 84.4733 56.4161 84.4733Z" fill="#EC2227"/>
</g>
</g>
<defs>
<clipPath id="clip0_775_1539">
<rect width="113" height="113" fill="white" transform="translate(0.371094 0.878906)"/>
</clipPath>
<clipPath id="clip1_775_1539">
<rect width="46" height="72" fill="white" transform="translate(33.3809 -3.58203)"/>
</clipPath>
</defs>
</svg>
