<svg width="300" height="290" viewBox="0 0 300 290" fill="none" xmlns="http://www.w3.org/2000/svg">
<g clip-path="url(#clip0_1477_176)">
<path d="M137.016 159.299C137.016 152.033 137.871 146.049 139.581 141.347C141.291 136.503 143.357 132.442 145.779 129.165C148.343 125.746 151.05 122.897 153.9 120.617C156.892 118.337 159.599 116.129 162.021 113.992C164.585 111.712 166.722 109.219 168.432 106.512C170.142 103.662 170.997 100.172 170.997 96.04C170.997 90.341 169.216 85.8531 165.654 82.5762C162.234 79.1568 157.319 77.4471 150.908 77.4471C144.211 77.4471 138.94 79.2992 135.093 83.0036C131.389 86.7079 129.252 91.7658 128.682 98.1771H101.754C102.039 91.6233 103.321 85.6394 105.601 80.2253C108.023 74.8113 111.3 70.1096 115.432 66.1203C119.706 62.131 124.692 59.0678 130.391 56.9307C136.233 54.6511 142.715 53.5113 149.839 53.5113C157.675 53.5113 164.585 54.5086 170.569 56.5033C176.553 58.4979 181.54 61.2762 185.529 64.838C189.661 68.3999 192.724 72.6742 194.719 77.6608C196.856 82.5049 197.924 87.9189 197.924 93.9029C197.924 100.029 197.07 105.158 195.36 109.29C193.65 113.422 191.442 117.055 188.735 120.189C186.17 123.181 183.321 125.888 180.186 128.311C177.194 130.733 174.345 133.368 171.638 136.218C169.073 139.067 166.936 142.273 165.226 145.835C163.517 149.397 162.662 153.885 162.662 159.299H137.016ZM149.839 206.957C144.853 206.957 140.721 205.318 137.444 202.041C134.309 198.622 132.742 194.561 132.742 189.86C132.742 185.158 134.309 181.169 137.444 177.892C140.721 174.472 144.853 172.763 149.839 172.763C154.826 172.763 158.886 174.472 162.021 177.892C165.298 181.169 166.936 185.158 166.936 189.86C166.936 194.561 165.298 198.622 162.021 202.041C158.886 205.318 154.826 206.957 149.839 206.957Z" fill="#EC2227"/>
</g>
<path d="M151.513 202.32C143.741 202.32 137.422 196.035 137.422 188.266C137.422 180.515 143.724 174.213 151.513 174.213C159.285 174.213 165.604 180.498 165.604 188.266C165.604 196.018 159.302 202.32 151.513 202.32Z" fill="#303030"/>
<path d="M224.015 126.558C216.243 126.558 209.924 120.273 209.924 112.505C209.924 104.753 216.226 98.4512 224.015 98.4512C231.787 98.4512 238.106 104.737 238.106 112.505C238.089 120.256 231.787 126.558 224.015 126.558Z" fill="#303030"/>
<path d="M79.0147 126.558C71.2428 126.558 64.9238 120.273 64.9238 112.505C64.9238 104.753 71.2259 98.4512 79.0147 98.4512C86.7867 98.4512 93.1056 104.737 93.1056 112.505C93.0887 120.256 86.7867 126.558 79.0147 126.558Z" fill="#303030"/>
<path d="M109.468 171.196C109.468 181.99 107.342 192.678 103.211 202.651C99.0806 212.623 93.0261 221.684 85.3937 229.316C77.7612 236.949 68.7002 243.003 58.7279 247.134C48.7556 251.265 38.0674 253.391 27.2734 253.391" stroke="#EC2227" stroke-width="28.1818"/>
<path d="M193.561 171.196C193.561 181.99 195.687 192.678 199.818 202.651C203.949 212.623 210.003 221.684 217.636 229.316C225.268 236.949 234.329 243.003 244.301 247.134C254.274 251.265 264.962 253.391 275.756 253.391" stroke="#EC2227" stroke-width="28.1818"/>
<defs>
<clipPath id="clip0_1477_176">
<rect width="109.091" height="163.636" fill="white" transform="translate(96.8926 0.0332031)"/>
</clipPath>
</defs>
</svg>
