<svg width="1261" height="120" viewBox="0 0 1261 120" fill="none" xmlns="http://www.w3.org/2000/svg">
<circle r="16.1858" transform="matrix(-0.955215 0.295912 0.295912 0.955215 20.7623 80.6763)" fill="#EC2227"/>
<path d="M1229.23 29.2309C1246.37 44.9885 1247.48 71.6491 1231.73 88.7807C1215.97 105.919 1189.31 107.032 1172.18 91.2805C1155.04 75.5229 1153.93 48.8623 1169.68 31.7308C1185.43 14.5928 1212.09 13.4733 1229.23 29.2309ZM1182.26 80.3214C1193.34 90.508 1210.59 89.7839 1220.77 78.7046C1230.96 67.6254 1230.24 50.3766 1219.16 40.19C1208.07 29.997 1190.83 30.7276 1180.64 41.8068C1170.45 52.8861 1171.17 70.1284 1182.26 80.3214Z" fill="#EC2227"/>
</svg>
