<svg width="36" height="42" viewBox="0 0 36 42" fill="none" xmlns="http://www.w3.org/2000/svg">
<path d="M18 17.8047C20.4853 17.8047 22.5 15.79 22.5 13.3047C22.5 10.8194 20.4853 8.80469 18 8.80469C15.5147 8.80469 13.5 10.8194 13.5 13.3047C13.5 15.79 15.5147 17.8047 18 17.8047Z" fill="#1A1A1A"/>
<path d="M29.25 13.3047C29.25 23.4297 18 31.3047 18 31.3047C18 31.3047 6.75 23.4297 6.75 13.3047C6.75 10.321 7.93526 7.45952 10.045 5.34974C12.1548 3.23995 15.0163 2.05469 18 2.05469C20.9837 2.05469 23.8452 3.23995 25.955 5.34974C28.0647 7.45952 29.25 10.321 29.25 13.3047V13.3047Z" stroke="#ED1C29" stroke-width="4" stroke-linecap="round"/>
<line x1="0.64502" y1="39.9238" x2="35.2671" y2="39.9238" stroke="#1A1A1A" stroke-width="4"/>
</svg>
