<svg width="345" height="358" viewBox="0 0 345 358" fill="none" xmlns="http://www.w3.org/2000/svg">
<rect x="0.333984" y="0.333984" width="343.954" height="357.152" rx="16" fill="white"/>
<path d="M187.899 95.7969H153.92V197.567H187.899V95.7969Z" fill="#EC2227"/>
<path d="M187.899 223.254H153.92V257.494H187.899V223.254Z" fill="#EC2227"/>
<path d="M170.886 66.4835C161.515 66.4835 153.896 58.8469 153.896 49.4087C153.896 39.991 161.495 32.334 170.886 32.334C180.257 32.334 187.875 39.9705 187.875 49.4087C187.875 58.8265 180.277 66.4835 170.886 66.4835Z" fill="#1A1A1A"/>
<path d="M258.3 146.689C248.929 146.689 241.311 139.052 241.311 129.614C241.311 120.196 248.909 112.539 258.3 112.539C267.671 112.539 275.289 120.176 275.289 129.614C275.269 139.032 267.671 146.689 258.3 146.689Z" fill="#1A1A1A"/>
<path d="M83.4738 146.689C74.1031 146.689 66.4844 139.052 66.4844 129.614C66.4844 120.196 74.0828 112.539 83.4738 112.539C92.8445 112.539 100.463 120.176 100.463 129.614C100.443 139.032 92.8445 146.689 83.4738 146.689Z" fill="#1A1A1A"/>
<path d="M130.372 326.821C130.372 313.707 127.789 300.721 122.771 288.605C117.752 276.489 110.396 265.48 101.123 256.207C91.8493 246.933 80.8404 239.577 68.7243 234.559C56.6082 229.54 43.6222 226.957 30.5078 226.957" stroke="#EC2227" stroke-width="30.1208"/>
<path d="M214.249 326.821C214.249 313.707 216.832 300.721 221.851 288.605C226.869 276.489 234.225 265.48 243.498 256.207C252.772 246.933 263.781 239.577 275.897 234.559C288.013 229.54 300.999 226.957 314.113 226.957" stroke="#EC2227" stroke-width="30.1208"/>
</svg>
