<svg width="136" height="141" viewBox="0 0 136 141" fill="none" xmlns="http://www.w3.org/2000/svg">
<path d="M66.9691 16.4209C62.501 16.4209 58.8682 12.7797 58.8682 8.27932C58.8682 3.78874 62.4913 0.137695 66.9691 0.137695C71.4373 0.137695 75.0701 3.77897 75.0701 8.27932C75.0701 12.7699 71.447 16.4209 66.9691 16.4209Z" fill="#1A1A1A"/>
<path d="M108.65 54.6641C104.182 54.6641 100.549 51.0228 100.549 46.5225C100.549 42.0319 104.172 38.3809 108.65 38.3809C113.118 38.3809 116.751 42.0221 116.751 46.5225C116.741 51.0131 113.118 54.6641 108.65 54.6641Z" fill="#1A1A1A"/>
<path d="M25.2894 54.6641C20.8213 54.6641 17.1885 51.0228 17.1885 46.5225C17.1885 42.0319 20.8116 38.3809 25.2894 38.3809C29.7576 38.3809 33.3904 42.0221 33.3904 46.5225C33.3807 51.0131 29.7576 54.6641 25.2894 54.6641Z" fill="#1A1A1A"/>
<path d="M75.0808 30.3984H58.8789V78.9247H75.0808V30.3984Z" fill="#EC2227"/>
<path d="M75.0808 91.1719H58.8789V107.498H75.0808V91.1719Z" fill="#EC2227"/>
<path d="M47.6518 140.555C47.6518 134.302 46.4201 128.11 44.0271 122.333C41.6341 116.555 38.1266 111.306 33.7049 106.884C29.2832 102.463 24.0339 98.9552 18.2566 96.5622C12.4794 94.1692 6.28741 92.9375 0.0341797 92.9375" stroke="#EC2227" stroke-width="14.3623"/>
<path d="M87.6451 140.555C87.6451 134.302 88.8768 128.11 91.2698 122.333C93.6628 116.555 97.1703 111.306 101.592 106.884C106.014 102.463 111.263 98.9552 117.04 96.5622C122.817 94.1692 129.009 92.9375 135.263 92.9375" stroke="#EC2227" stroke-width="14.3623"/>
</svg>
