<svg width="34" height="40" viewBox="0 0 34 40" fill="none" xmlns="http://www.w3.org/2000/svg">
<path d="M16.9995 16.8398C19.3467 16.8398 21.2495 14.9371 21.2495 12.5898C21.2495 10.2426 19.3467 8.33984 16.9995 8.33984C14.6523 8.33984 12.7495 10.2426 12.7495 12.5898C12.7495 14.9371 14.6523 16.8398 16.9995 16.8398Z" fill="#1A1A1A"/>
<path d="M27.625 12.5889C27.625 22.1514 17 29.5889 17 29.5889C17 29.5889 6.375 22.1514 6.375 12.5889C6.375 9.77094 7.49442 7.06843 9.48699 5.07586C11.4796 3.08328 14.1821 1.96387 17 1.96387C19.8179 1.96387 22.5204 3.08328 24.513 5.07586C26.5056 7.06843 27.625 9.77094 27.625 12.5889V12.5889Z" stroke="#ED1C29" stroke-width="3.77778" stroke-linecap="round"/>
<line x1="0.609375" y1="37.7303" x2="33.308" y2="37.7303" stroke="#1A1A1A" stroke-width="3.77778"/>
</svg>
