<svg width="5" height="9" viewBox="0 0 5 9" fill="none" xmlns="http://www.w3.org/2000/svg">
<mask id="path-1-inside-1_760_280" fill="white">
<path d="M0.208131 8.79321L4.34595 4.65539L0.208131 0.517578"/>
</mask>
<path d="M1.18342 9.7685C0.644784 10.3071 -0.228522 10.3071 -0.767162 9.7685C-1.3058 9.22986 -1.3058 8.35656 -0.767162 7.81792L1.18342 9.7685ZM4.34595 4.65539L5.32124 3.6801C5.85988 4.21874 5.85988 5.09205 5.32124 5.63069L4.34595 4.65539ZM-0.767162 1.49287C-1.3058 0.954232 -1.3058 0.0809247 -0.767162 -0.457715C-0.228522 -0.996354 0.644784 -0.996354 1.18342 -0.457715L-0.767162 1.49287ZM-0.767162 7.81792L3.37065 3.6801L5.32124 5.63069L1.18342 9.7685L-0.767162 7.81792ZM3.37065 5.63069L-0.767162 1.49287L1.18342 -0.457715L5.32124 3.6801L3.37065 5.63069Z" fill="#C4C4C4" mask="url(#path-1-inside-1_760_280)"/>
</svg>
