<svg width="105" height="92" viewBox="0 0 105 92" fill="none" xmlns="http://www.w3.org/2000/svg">
<path d="M93.5744 62.6094H11.4658V74.2122H93.5744V62.6094Z" fill="#ED1C29"/>
<path d="M93.5842 40.6895H11.4756V52.2923H93.5842V40.6895Z" fill="#ED1C29"/>
<path d="M93.5664 31.4347V62.6074H104.614V31.4347H93.5664Z" fill="#ED1C29"/>
<path d="M0.416016 31.4323L0.416016 62.6094H11.4638L11.4638 31.4323H0.416016Z" fill="#ED1C29"/>
<path d="M11.4658 80.1198V91.7227H22.3291V80.1198H11.4658Z" fill="#CCCCCC"/>
<path d="M82.709 80.1198V91.7227H93.5723V80.1198H82.709Z" fill="#CCCCCC"/>
<path d="M62.1523 46.2793L62.1523 19.937L94.1097 19.937L94.1097 46.2793L62.1523 46.2793Z" stroke="#ED1C29" stroke-width="11.8151" stroke-linejoin="round"/>
<path d="M20.291 46.2793L20.291 19.937L50.3045 19.937L50.3045 46.2793L20.291 46.2793Z" stroke="#ED1C29" stroke-width="11.8151" stroke-linejoin="round"/>
</svg>
