<svg width="88" height="87" viewBox="0 0 88 87" fill="none" xmlns="http://www.w3.org/2000/svg">
<path d="M28.2506 34.1277C24.5327 34.1277 21.5098 31.1208 21.5098 27.4047C21.5098 23.6965 24.5246 20.6816 28.2506 20.6816C31.9686 20.6816 34.9915 23.6885 34.9915 27.4047C34.9834 31.1128 31.9686 34.1277 28.2506 34.1277Z" fill="#CCCCCC"/>
<path d="M56.5393 45.2444C56.5393 40.0808 55.5223 34.9677 53.5462 30.1971C51.5702 25.4265 48.6739 21.0918 45.0226 17.4406C41.3713 13.7893 37.0367 10.893 32.2661 8.91693C27.4955 6.94088 22.3824 5.92383 17.2188 5.92383" stroke="#EC2227" stroke-width="10.1724"/>
<path d="M5.98801 17.0739C5.98801 22.2376 7.00506 27.3507 8.9811 32.1213C10.9571 36.8919 13.8535 41.2265 17.5047 44.8778C21.156 48.5291 25.4907 51.4254 30.2613 53.4014C35.0318 55.3775 40.1449 56.3945 45.3086 56.3945" stroke="#EC2227" stroke-width="10.1724"/>
<path d="M61.6254 45.242L56.4961 38.5059L38.5994 56.4026L45.2925 61.4586L61.6254 45.242Z" fill="#EC2227"/>
<path d="M73.6295 55.0289L66.9385 48.3379L49.0417 66.2346L55.7327 72.9256L73.6295 55.0289Z" fill="#EC2227"/>
<path d="M23.9086 5.90767L17.2442 0.827069L0.928442 17.0725L5.90819 23.9081L23.9086 5.90767Z" fill="#EC2227"/>
<path d="M68.9716 77.0342L55.8688 72.9486L64.886 63.9314L68.9716 77.0342Z" fill="#CCCCCC"/>
<path d="M77.7724 68.2373L64.6696 64.1517L73.6868 55.1345L77.7724 68.2373Z" fill="#CCCCCC"/>
<path d="M5.09879 5.1141L5.30388 5.10988L5.09457 5.31918L5.09879 5.1141Z" stroke="#CCCCCC" stroke-width="8.47701"/>
<path d="M83.9766 33.8942C82.0802 31.7081 79.7718 29.9168 77.1832 28.6228C74.5946 27.3288 71.7764 26.5573 68.8897 26.3523C66.0029 26.1474 63.104 26.5131 60.3585 27.4285C57.6131 28.3439 55.0748 29.7911 52.8887 31.6875" stroke="#EC2227" stroke-width="10.1724"/>
<path d="M31.5428 83.4757C29.646 81.289 28.1985 78.7502 27.2829 76.0041C26.3673 73.2581 26.0015 70.3586 26.2064 67.4711C26.4114 64.5837 27.1831 61.7649 28.4774 59.1757C29.7717 56.5866 31.5634 54.2776 33.75 52.3809" stroke="#EC2227" stroke-width="10.1724"/>
</svg>
