<svg width="121" height="129" viewBox="0 0 121 129" fill="none" xmlns="http://www.w3.org/2000/svg">
<line x1="9.41276" y1="45.502" x2="9.41276" y2="92.7216" stroke="#CCCCCC" stroke-width="14.9115"/>
<line x1="112.548" y1="38.0527" x2="112.548" y2="85.2723" stroke="#CCCCCC" stroke-width="14.9115"/>
<path d="M78.998 85.2656L78.998 113.846" stroke="#ED1C29" stroke-width="14.9115"/>
<path d="M66.0293 67.1894V81.8145H79.7691V67.1894H66.0293Z" fill="#CCCCCC"/>
<path d="M39.2383 16.9238L39.2383 56.6877" stroke="#ED1C29" stroke-width="14.9115"/>
<path d="M2.6337 112.155L34.0077 100.181L72.5418 110.742L109.326 98.937" stroke="#ED1C29" stroke-width="14.9115"/>
<path d="M2.6337 32.0672L34.0077 20.0933L72.5418 30.6541L109.326 18.8491" stroke="#ED1C29" stroke-width="14.9115"/>
<path d="M42.7663 82.745C38.9018 82.745 35.7598 79.4193 35.7598 75.309C35.7598 71.2076 38.8934 67.873 42.7663 67.873C46.6307 67.873 49.7727 71.1987 49.7727 75.309C49.7727 79.4104 46.6391 82.745 42.7663 82.745Z" fill="#ED1C29"/>
<path d="M73.1217 61.62C69.2572 61.62 66.1152 58.2943 66.1152 54.184C66.1152 50.0826 69.2488 46.748 73.1217 46.748C76.9862 46.748 80.1282 50.0737 80.1282 54.184C80.1282 58.2854 76.9946 61.62 73.1217 61.62Z" fill="#ED1C29"/>
</svg>
