<svg width="92" height="92" viewBox="0 0 92 92" fill="none" xmlns="http://www.w3.org/2000/svg">
<path d="M34.0361 21.254C34.0361 14.5806 39.5387 9.16824 46.3235 9.16824C53.1082 9.16824 58.6109 14.5806 58.6109 21.254H67.9321C67.9321 9.51589 58.2574 0 46.3235 0C34.3895 0 24.7148 9.51589 24.7148 21.254H34.0361Z" fill="#ED1C29"/>
<path d="M82.2506 82.4043H10.4043V91.9987H82.2506V82.4043Z" fill="#ED1C29"/>
<path d="M82.2506 27.3691H10.4043V36.9635H82.2506V27.3691Z" fill="#ED1C29"/>
<path d="M36.5325 49.5156H1.14648V59.11H36.5325V49.5156Z" fill="#ED1C29"/>
<path d="M86.756 49.5156H56.1172V59.11H86.756V49.5156Z" fill="#ED1C29"/>
<path d="M82.2451 37.5904V82.4023H91.9996V37.5904H82.2451Z" fill="#ED1C29"/>
<path d="M0 37.5924L0 82.4043H9.75446L9.75446 37.5924H0Z" fill="#ED1C29"/>
<path d="M41.5322 49.517V59.1113H51.1237V49.517H41.5322Z" fill="#CCCCCC"/>
</svg>
