<svg width="99" height="109" viewBox="0 0 99 109" fill="none" xmlns="http://www.w3.org/2000/svg">
<path d="M32.6931 70.68C32.6931 74.9733 31.8474 79.2246 30.2045 83.1911C28.5615 87.1576 26.1533 90.7616 23.1175 93.7975C20.0817 96.8333 16.4776 99.2415 12.5111 100.884C8.54459 102.527 4.29331 103.373 0 103.373" stroke="#EC2227" stroke-width="11.2094"/>
<path d="M66.1419 70.68C66.1419 74.9733 66.9875 79.2246 68.6305 83.1911C70.2735 87.1576 72.6816 90.7616 75.7175 93.7975C78.7533 96.8333 82.3574 99.2415 86.3239 100.884C90.2904 102.527 94.5416 103.373 98.835 103.373" stroke="#EC2227" stroke-width="11.2094"/>
<g clip-path="url(#clip0_1216_1452)">
<path d="M43.892 64.0297C43.892 61.1396 44.232 58.7594 44.9121 56.8893C45.5921 54.9626 46.4138 53.3475 47.3772 52.0441C48.3972 50.684 49.474 49.5506 50.6074 48.6439C51.7974 47.7372 52.8741 46.8588 53.8375 46.0088C54.8576 45.102 55.7076 44.1103 56.3877 43.0336C57.0677 41.9002 57.4077 40.5118 57.4077 38.8684C57.4077 36.6016 56.6994 34.8165 55.2826 33.5131C53.9225 32.153 51.9674 31.473 49.4173 31.473C46.7538 31.473 44.657 32.2097 43.127 33.6831C41.6535 35.1565 40.8035 37.1683 40.5768 39.7184H29.8662C29.9796 37.1116 30.4896 34.7315 31.3963 32.578C32.3597 30.4246 33.6631 28.5545 35.3065 26.9677C37.0066 25.381 38.9901 24.1626 41.2569 23.3125C43.5803 22.4058 46.1588 21.9525 48.9923 21.9525C52.1091 21.9525 54.8576 22.3491 57.2377 23.1425C59.6178 23.9359 61.6013 25.041 63.188 26.4577C64.8315 27.8744 66.0499 29.5745 66.8432 31.558C67.6933 33.4847 68.1183 35.6382 68.1183 38.0183C68.1183 40.4551 67.7783 42.4952 67.0982 44.1387C66.4182 45.7821 65.5398 47.2272 64.4631 48.4739C63.443 49.664 62.3097 50.7407 61.0629 51.7041C59.8729 52.6674 58.7395 53.7158 57.6627 54.8492C56.6427 55.9826 55.7926 57.2577 55.1126 58.6744C54.4326 60.0912 54.0925 61.8763 54.0925 64.0297H43.892ZM48.9923 82.9857C47.0088 82.9857 45.3654 82.334 44.062 81.0306C42.8153 79.6706 42.1919 78.0555 42.1919 76.1854C42.1919 74.3153 42.8153 72.7285 44.062 71.4251C45.3654 70.065 47.0088 69.385 48.9923 69.385C50.9757 69.385 52.5908 70.065 53.8375 71.4251C55.1409 72.7285 55.7926 74.3153 55.7926 76.1854C55.7926 78.0555 55.1409 79.6706 53.8375 81.0306C52.5908 82.334 50.9757 82.9857 48.9923 82.9857Z" fill="#EC2227"/>
</g>
<path d="M49.3106 84.259C45.8299 84.259 43 81.294 43 77.6295C43 73.9729 45.8224 71 49.3106 71C52.7912 71 55.6211 73.965 55.6211 77.6295C55.6211 81.2861 52.7988 84.259 49.3106 84.259Z" fill="#CCCCCC"/>
<path d="M81.2471 39.259C77.7664 39.259 74.9365 36.294 74.9365 32.6295C74.9365 28.9729 77.7589 26 81.2471 26C84.7277 26 87.5577 28.965 87.5577 32.6295C87.5501 36.2861 84.7277 39.259 81.2471 39.259Z" fill="#CCCCCC"/>
<path d="M16.3106 39.259C12.8299 39.259 10 36.294 10 32.6295C10 28.9729 12.8224 26 16.3106 26C19.7912 26 22.6211 28.965 22.6211 32.6295C22.6136 36.2861 19.7912 39.259 16.3106 39.259Z" fill="#CCCCCC"/>
<defs>
<clipPath id="clip0_1216_1452">
<rect width="42.9693" height="67.2564" fill="white" transform="translate(27.4756)"/>
</clipPath>
</defs>
</svg>
