<svg width="102" height="107" viewBox="0 0 102 107" fill="none" xmlns="http://www.w3.org/2000/svg">
<path d="M55.2312 28.3496H45.1494V59.9132H55.2312V28.3496Z" fill="#EC2227"/>
<path d="M55.2312 67.8789H45.1494V78.4984H55.2312V67.8789Z" fill="#EC2227"/>
<path d="M50.1854 19.2554C47.4051 19.2554 45.1445 16.8869 45.1445 13.9597C45.1445 11.0389 47.399 8.66406 50.1854 8.66406C52.9658 8.66406 55.2263 11.0325 55.2263 13.9597C55.2263 16.8806 52.9718 19.2554 50.1854 19.2554Z" fill="#CCCCCC"/>
<path d="M76.121 44.1304C73.3406 44.1304 71.0801 41.7619 71.0801 38.8347C71.0801 35.9139 73.3346 33.5391 76.121 33.5391C78.9013 33.5391 81.1618 35.9075 81.1618 38.8347C81.1558 41.7556 78.9013 44.1304 76.121 44.1304Z" fill="#CCCCCC"/>
<path d="M24.2489 44.1304C21.4685 44.1304 19.208 41.7619 19.208 38.8347C19.208 35.9139 21.4625 33.5391 24.2489 33.5391C27.0292 33.5391 29.2898 35.9075 29.2898 38.8347C29.2837 41.7556 27.0292 44.1304 24.2489 44.1304Z" fill="#CCCCCC"/>
<path d="M37.0008 99.9998C37.0008 95.9325 36.1997 91.9049 34.6432 88.1472C33.0867 84.3894 30.8052 80.975 27.9292 78.099C25.0531 75.2229 21.6387 72.9415 17.881 71.385C14.1232 69.8285 10.0957 69.0273 6.02832 69.0273" stroke="#EC2227" stroke-width="10.6195"/>
<path d="M63.0129 99.9998C63.0129 95.9325 63.814 91.9049 65.3705 88.1472C66.927 84.3894 69.2084 80.975 72.0845 78.099C74.9606 75.2229 78.3749 72.9415 82.1327 71.385C85.8904 69.8285 89.918 69.0273 93.9854 69.0273" stroke="#EC2227" stroke-width="10.6195"/>
</svg>
