<svg width="469" height="43" viewBox="0 0 469 43" fill="none" xmlns="http://www.w3.org/2000/svg">
<path d="M12.6873 8.8779L0.0222168 21.543L12.6873 34.208L25.3524 21.543L12.6873 8.8779Z" fill="#ED1C29"/>
<path d="M54.4357 21.543C54.4357 18.8798 52.2767 16.7208 49.6134 16.7208C46.9502 16.7208 44.7912 18.8798 44.7912 21.543C44.7912 24.2063 46.9502 26.3652 49.6134 26.3652C52.2767 26.3652 54.4357 24.2063 54.4357 21.543Z" fill="#D7DF23"/>
<path d="M86.5397 8.8779L73.8746 21.543L86.5397 34.208L99.2048 21.543L86.5397 8.8779Z" fill="#ED1C29"/>
<path d="M128.288 21.543C128.288 18.8798 126.129 16.7208 123.466 16.7208C120.803 16.7208 118.644 18.8798 118.644 21.543C118.644 24.2063 120.803 26.3652 123.466 26.3652C126.129 26.3652 128.288 24.2063 128.288 21.543Z" fill="#D7DF23"/>
<path d="M160.392 8.8779L147.727 21.543L160.392 34.208L173.057 21.543L160.392 8.8779Z" fill="#ED1C29"/>
<path d="M202.141 21.543C202.141 18.8798 199.982 16.7208 197.318 16.7208C194.655 16.7208 192.496 18.8798 192.496 21.543C192.496 24.2063 194.655 26.3652 197.318 26.3652C199.982 26.3652 202.141 24.2063 202.141 21.543Z" fill="#D7DF23"/>
<path d="M234.244 8.8779L221.579 21.543L234.244 34.208L246.909 21.543L234.244 8.8779Z" fill="#ED1C29"/>
<path d="M275.993 21.543C275.993 18.8798 273.834 16.7208 271.171 16.7208C268.507 16.7208 266.348 18.8798 266.348 21.543C266.348 24.2063 268.507 26.3652 271.171 26.3652C273.834 26.3652 275.993 24.2063 275.993 21.543Z" fill="#D7DF23"/>
<path d="M308.097 8.8779L295.432 21.543L308.097 34.208L320.762 21.543L308.097 8.8779Z" fill="#ED1C29"/>
<path d="M349.845 21.543C349.845 18.8798 347.686 16.7208 345.023 16.7208C342.36 16.7208 340.201 18.8798 340.201 21.543C340.201 24.2063 342.36 26.3652 345.023 26.3652C347.686 26.3652 349.845 24.2063 349.845 21.543Z" fill="#D7DF23"/>
<path d="M381.949 8.8779L369.284 21.543L381.949 34.208L394.614 21.543L381.949 8.8779Z" fill="#ED1C29"/>
<path d="M423.698 21.543C423.698 18.8798 421.539 16.7208 418.875 16.7208C416.212 16.7208 414.053 18.8798 414.053 21.543C414.053 24.2063 416.212 26.3652 418.875 26.3652C421.539 26.3652 423.698 24.2063 423.698 21.543Z" fill="#D7DF23"/>
<path d="M455.802 8.8779L443.136 21.543L455.802 34.208L468.467 21.543L455.802 8.8779Z" fill="#ED1C29"/>
</svg>
