<svg width="182" height="177" viewBox="0 0 182 177" fill="none" xmlns="http://www.w3.org/2000/svg">
<path d="M66.2812 76.424C59.5963 76.424 54.1611 71.0177 54.1611 64.336C54.1611 57.6688 59.5818 52.248 66.2812 52.248C72.9662 52.248 78.4014 57.6543 78.4014 64.336C78.3868 71.0033 72.9662 76.424 66.2812 76.424Z" fill="#D7D7D7"/>
<path d="M117.148 96.4094C117.148 87.1251 115.319 77.9318 111.766 69.3543C108.213 60.7767 103.006 52.983 96.4406 46.418C89.8756 39.8531 82.0819 34.6455 73.5043 31.0925C64.9268 27.5396 55.7335 25.7109 46.4492 25.7109" stroke="#EC2227" stroke-width="18.29"/>
<path d="M26.2527 45.7605C26.2527 55.0448 28.0814 64.2381 31.6343 72.8157C35.1872 81.3932 40.3949 89.1869 46.9598 95.7519C53.5248 102.317 61.3185 107.524 69.896 111.077C78.4736 114.63 87.6669 116.459 96.9512 116.459" stroke="#EC2227" stroke-width="18.29"/>
<path d="M126.294 96.4123L117.071 84.3008L84.8929 116.479L96.9272 125.57L126.294 96.4123Z" fill="#EC2227"/>
<path d="M147.874 113.997L135.844 101.967L103.665 134.145L115.696 146.176L147.874 113.997Z" fill="#EC2227"/>
<path d="M58.4745 25.6884L46.4919 16.5535L17.1561 45.7627L26.1097 58.0532L58.4745 25.6884Z" fill="#EC2227"/>
<path d="M139.496 153.571L115.937 146.226L132.15 130.013L139.496 153.571Z" fill="#D7D7D7"/>
<path d="M155.323 137.763L131.764 130.417L147.977 114.204L155.323 137.763Z" fill="#D7D7D7"/>
<path d="M24.9929 24.5999L25.3598 24.5923L24.9854 24.9668L24.9929 24.5999Z" stroke="#D7D7D7" stroke-width="15.2417"/>
<path d="M166.477 76.0048C163.067 72.0741 158.917 68.8534 154.263 66.5268C149.608 64.2001 144.541 62.8129 139.351 62.4445C134.16 62.0761 128.948 62.7336 124.012 64.3795C119.076 66.0254 114.512 68.6274 110.581 72.0371" stroke="#EC2227" stroke-width="18.29"/>
<path d="M72.2004 165.162C68.79 161.231 66.1873 156.666 64.541 151.729C62.8948 146.791 62.2371 141.578 62.6056 136.386C62.9741 131.195 64.3616 126.126 66.6888 121.471C69.016 116.816 72.2374 112.664 76.1689 109.254" stroke="#EC2227" stroke-width="18.29"/>
</svg>
