<svg width="78" height="78" viewBox="0 0 78 78" fill="none" xmlns="http://www.w3.org/2000/svg">
<path d="M27.9078 32.8957C24.8864 32.8957 22.4298 30.4522 22.4298 27.4322C22.4298 24.4188 24.8798 21.9688 27.9078 21.9688C30.9293 21.9688 33.3858 24.4123 33.3858 27.4322C33.3793 30.4457 30.9293 32.8957 27.9078 32.8957Z" fill="#1A1A1A"/>
<path d="M50.8965 41.9297C50.8965 37.7334 50.07 33.5782 48.4641 29.7014C46.8583 25.8245 44.5046 22.3019 41.5373 19.3347C38.5701 16.3675 35.0475 14.0138 31.1707 12.4079C27.2938 10.8021 23.1387 9.97559 18.9424 9.97559" stroke="#EC2227" stroke-width="8.26667"/>
<path d="M9.8158 19.0361C9.8158 23.2324 10.6423 27.3876 12.2482 31.2644C13.854 35.1413 16.2077 38.6639 19.1749 41.6311C22.1422 44.5983 25.6647 46.952 29.5416 48.5579C33.4184 50.1637 37.5736 50.9902 41.7699 50.9902" stroke="#EC2227" stroke-width="8.26667"/>
<path d="M55.0297 41.9282L50.8613 36.4541L36.3174 50.998L41.7566 55.1068L55.0297 41.9282Z" fill="#EC2227"/>
<path d="M64.7849 49.8789L59.3474 44.4414L44.8035 58.9853L50.241 64.4228L64.7849 49.8789Z" fill="#EC2227"/>
<path d="M24.3784 9.96301L18.9626 5.83423L5.70342 19.0362L9.75024 24.5912L24.3784 9.96301Z" fill="#EC2227"/>
<path d="M60.999 67.764L50.3509 64.4438L57.6788 57.1159L60.999 67.764Z" fill="#1A1A1A"/>
<path d="M68.1516 60.6175L57.5035 57.2973L64.8314 49.9694L68.1516 60.6175Z" fill="#1A1A1A"/>
<path d="M9.24527 9.47299L9.41111 9.46958L9.24186 9.63883L9.24527 9.47299Z" stroke="#1A1A1A" stroke-width="6.88889"/>
<path d="M73.1935 32.7064C71.6524 30.9298 69.7764 29.4741 67.6728 28.4225C65.5691 27.3709 63.2789 26.744 60.933 26.5774C58.587 26.4109 56.2312 26.7081 54.0001 27.452C51.769 28.1959 49.7063 29.372 47.9297 30.9131" stroke="#EC2227" stroke-width="8.26667"/>
<path d="M30.582 73.0008C29.0406 71.2238 27.8643 69.1606 27.1202 66.929C26.3761 64.6974 26.0789 62.3411 26.2454 59.9946C26.412 57.6482 27.0391 55.3575 28.0909 53.2533C29.1428 51.1492 30.5987 49.2729 32.3757 47.7314" stroke="#EC2227" stroke-width="8.26667"/>
</svg>
