<svg width="21" height="13" viewBox="0 0 21 13" fill="none" xmlns="http://www.w3.org/2000/svg">
<mask id="path-1-inside-1_756_3349" fill="white">
<path d="M0.652031 0.85941L10.6113 12.1162L20.5706 0.85941"/>
</mask>
<path d="M-0.845875 2.18466C-1.57779 1.35739 -1.50049 0.0934179 -0.673216 -0.638496C0.154055 -1.37041 1.41802 -1.29311 2.14994 -0.465837L-0.845875 2.18466ZM10.6113 12.1162L12.1092 13.4415C11.7296 13.8705 11.1842 14.1162 10.6113 14.1162C10.0384 14.1162 9.493 13.8705 9.11339 13.4415L10.6113 12.1162ZM19.0727 -0.465837C19.8046 -1.29311 21.0685 -1.37041 21.8958 -0.638495C22.7231 0.0934181 22.8004 1.35739 22.0685 2.18466L19.0727 -0.465837ZM2.14994 -0.465837L12.1092 10.791L9.11339 13.4415L-0.845875 2.18466L2.14994 -0.465837ZM9.11339 10.791L19.0727 -0.465837L22.0685 2.18466L12.1092 13.4415L9.11339 10.791Z" fill="#1A1A1A" mask="url(#path-1-inside-1_756_3349)"/>
</svg>
