<svg width="26" height="29" viewBox="0 0 26 29" fill="none" xmlns="http://www.w3.org/2000/svg">
<path d="M13.0445 12.3299C14.7565 12.3299 16.1445 10.942 16.1445 9.22988C16.1445 7.5178 14.7565 6.12988 13.0445 6.12988C11.3324 6.12988 9.94446 7.5178 9.94446 9.22988C9.94446 10.942 11.3324 12.3299 13.0445 12.3299Z" fill="#1A1A1A"/>
<path d="M20.7947 9.23047C20.7947 16.2055 13.0447 21.6305 13.0447 21.6305C13.0447 21.6305 5.29468 16.2055 5.29468 9.23047C5.29468 7.17504 6.11119 5.2038 7.5646 3.75039C9.01801 2.29698 10.9892 1.48047 13.0447 1.48047C15.1001 1.48047 17.0713 2.29698 18.5248 3.75039C19.9782 5.2038 20.7947 7.17504 20.7947 9.23047V9.23047Z" stroke="#ED1C29" stroke-width="2.75556" stroke-linecap="round"/>
<line x1="1.08887" y1="27.5666" x2="24.9397" y2="27.5666" stroke="#1A1A1A" stroke-width="2.75556"/>
</svg>
