<svg width="307" height="244" viewBox="0 0 307 244" fill="none" xmlns="http://www.w3.org/2000/svg">
<path d="M272.635 134.736H29.1738V166.89H272.635V134.736Z" fill="#ED1C29"/>
<path d="M272.67 73.9941H29.209V106.147H272.67V73.9941Z" fill="#ED1C29"/>
<path d="M272.615 48.348V134.732H305.373V48.348H272.615Z" fill="#ED1C29"/>
<path d="M-3.58594 48.3517L-3.58594 134.748H29.1721L29.1721 48.3517H-3.58594Z" fill="#ED1C29"/>
<path d="M29.1738 183.259L29.1738 215.412H61.3847V183.259H29.1738Z" fill="#1A1A1A"/>
<path d="M240.424 183.259V215.412H272.635V183.259H240.424Z" fill="#1A1A1A"/>
<path d="M167.443 89.4785L167.443 16.4801L256.002 16.4801L256.002 89.4785L167.443 89.4785Z" stroke="#ED1C29" stroke-width="32.7414" stroke-linejoin="round"/>
<path d="M45.1836 89.4785L45.1836 16.4801L134.609 16.4801L134.609 89.4785L45.1836 89.4785Z" stroke="#ED1C29" stroke-width="32.7414" stroke-linejoin="round"/>
</svg>
