<svg width="36" height="43" viewBox="0 0 36 43" fill="none" xmlns="http://www.w3.org/2000/svg">
<path d="M18 18.5957C20.4853 18.5957 22.5 16.581 22.5 14.0957C22.5 11.6104 20.4853 9.5957 18 9.5957C15.5147 9.5957 13.5 11.6104 13.5 14.0957C13.5 16.581 15.5147 18.5957 18 18.5957Z" fill="#D7DF28"/>
<path d="M29.25 14.0957C29.25 24.2207 18 32.0957 18 32.0957C18 32.0957 6.75 24.2207 6.75 14.0957C6.75 11.112 7.93526 8.25054 10.045 6.14075C12.1548 4.03097 15.0163 2.8457 18 2.8457C20.9837 2.8457 23.8452 4.03097 25.955 6.14075C28.0647 8.25054 29.25 11.112 29.25 14.0957V14.0957Z" stroke="#ED1C29" stroke-width="4" stroke-linecap="round"/>
<line x1="0.64502" y1="40.7139" x2="35.2671" y2="40.7139" stroke="#D7DF28" stroke-width="4"/>
</svg>
