<svg width="115" height="103" viewBox="0 0 115 103" fill="none" xmlns="http://www.w3.org/2000/svg">
<line x1="26" y1="36" x2="26" y2="74" stroke="#D7DF23" stroke-width="12"/>
<line x1="109" y1="30" x2="109" y2="68" stroke="#D7DF28" stroke-width="12"/>
<path d="M82 68L82 91" stroke="#ED1C29" stroke-width="12"/>
<path d="M82.1763 63.1506L82.186 53.0318" stroke="#D7DF28" stroke-width="12"/>
<path d="M50 13L50 45" stroke="#ED1C29" stroke-width="12"/>
<path d="M21.6342 89.637L48.5013 80.0009L81.5 88.4998L113 78.9996" stroke="#ED1C29" stroke-width="12"/>
<path d="M21.6342 25.1819L48.5013 15.5459L81.5 24.0447L113 14.5446" stroke="#ED1C29" stroke-width="12"/>
<path d="M56 65.9682C52.6906 65.9682 50 63.2919 50 59.9841C50 56.6835 52.6835 54 56 54C59.3094 54 62 56.6763 62 59.9841C62 63.2847 59.3165 65.9682 56 65.9682Z" fill="#ED1C29"/>
<path d="M82 46.9682C78.6906 46.9682 76 44.2919 76 40.9841C76 37.6835 78.6835 35 82 35C85.3094 35 88 37.6763 88 40.9841C88 44.2847 85.3165 46.9682 82 46.9682Z" fill="#ED1C29"/>
</svg>
