<svg width="151" height="162" viewBox="0 0 151 162" fill="none" xmlns="http://www.w3.org/2000/svg">
<line x1="10.1819" y1="57.3809" x2="10.1819" y2="117.358" stroke="#D7DF23" stroke-width="18.94"/>
<line x1="141.18" y1="47.916" x2="141.18" y2="107.893" stroke="#D7DF28" stroke-width="18.94"/>
<path d="M98.5713 107.891L98.5713 144.192" stroke="#ED1C29" stroke-width="18.94"/>
<path d="M98.8433 100.24L98.8584 84.2691" stroke="#D7DF28" stroke-width="18.94"/>
<path d="M48.0605 21.0859L48.0605 71.5927" stroke="#ED1C29" stroke-width="18.94"/>
<path d="M3.27263 141.035L45.3773 125.934L97.0912 139.253L146.457 124.364" stroke="#ED1C29" stroke-width="18.94"/>
<path d="M3.27263 40.0211L45.3773 24.92L97.0912 38.2389L146.457 23.3508" stroke="#ED1C29" stroke-width="18.94"/>
<path d="M57.1295 103.949C51.9432 103.949 47.7266 99.7551 47.7266 94.5713C47.7266 89.3988 51.9319 85.1934 57.1295 85.1934C62.3157 85.1934 66.5323 89.3876 66.5323 94.5713C66.5323 99.7438 62.327 103.949 57.1295 103.949Z" fill="#ED1C29"/>
<path d="M97.8755 74.168C92.6893 74.168 88.4727 69.9738 88.4727 64.7901C88.4727 59.6176 92.678 55.4121 97.8755 55.4121C103.062 55.4121 107.278 59.6063 107.278 64.7901C107.278 69.9626 103.073 74.168 97.8755 74.168Z" fill="#ED1C29"/>
</svg>
