<svg width="17" height="25" viewBox="0 0 17 25" fill="none" xmlns="http://www.w3.org/2000/svg">
<path d="M8.21706 6.78753V3.2915C3.70552 3.2915 0.0458984 6.9192 0.0458984 11.3914H3.56811C3.56811 8.84882 5.65212 6.78753 8.21706 6.78753Z" fill="#E30913"/>
<path d="M10.0079 1.34847V4.83995C12.1011 4.83995 14.1897 4.04994 15.7836 2.46538L13.2966 0C12.3897 0.898978 11.1988 1.34847 10.0079 1.34847Z" fill="#E30913"/>
<path d="M8.21706 20.5266C5.65212 20.5266 3.56811 18.4654 3.56811 15.9182C3.56811 13.3711 5.64754 11.3098 8.21706 11.3098C10.7866 11.3098 12.866 13.3711 12.866 15.9182C12.866 18.4654 10.782 20.5266 8.21706 20.5266ZM8.21706 7.81836C3.70552 7.81836 0.0458984 11.4461 0.0458984 15.9182C0.0458984 20.395 3.70552 24.0181 8.21706 24.0181C12.7286 24.0181 16.3882 20.3904 16.3882 15.9182C16.3882 11.4461 12.7286 7.81836 8.21706 7.81836Z" fill="#E30913"/>
</svg>
