<svg width="82" height="88" viewBox="0 0 82 88" fill="none" xmlns="http://www.w3.org/2000/svg">
<path fill-rule="evenodd" clip-rule="evenodd" d="M54.6534 15.4346C59.6231 15.4346 64.3892 17.4088 67.9033 20.9229C70.6367 23.6563 72.4384 27.1473 73.104 30.9023L78.2057 57.2432L78.2134 57.2846C78.6284 59.6393 78.282 62.065 77.2244 64.2094C76.1668 66.3538 74.4532 68.1052 72.3323 69.2092C70.2115 70.3133 67.794 70.7125 65.4308 70.3489C63.0676 69.9853 60.8818 68.8779 59.191 67.1873C59.1602 67.1565 59.1302 67.125 59.1011 67.0926L46.3567 52.9441L35.4732 52.9877L22.7111 67.0965C22.6831 67.1275 22.6543 67.1578 22.6247 67.1873C20.9338 68.8779 18.7481 69.9853 16.3849 70.3489C14.0217 70.7125 11.6042 70.3133 9.48334 69.2092C7.36251 68.1052 5.64888 66.3537 4.5913 64.2094C3.53373 62.065 3.1873 59.6393 3.60233 57.2846L3.61033 57.2414L8.6987 31.0717C8.70225 31.0475 8.70617 31.0232 8.71046 30.999C9.47663 26.6607 11.7464 22.731 15.1214 19.8996C18.4955 17.0691 22.7585 15.517 27.1625 15.5158C27.1638 15.5158 27.165 15.5158 27.1663 15.5158L54.6534 15.4346ZM13.6502 31.7627C13.6436 31.8122 13.6355 31.8616 13.626 31.9108L8.51985 58.1717C8.29469 59.4737 8.48817 60.8138 9.07277 61.9992C9.66033 63.1906 10.6124 64.1636 11.7907 64.777C12.969 65.3904 14.3121 65.6122 15.6251 65.4102C16.9191 65.2111 18.1173 64.6106 19.0509 63.6941L32.5074 48.8177C32.9787 48.2966 33.6477 47.9981 34.3503 47.9953L47.4448 47.9429C47.4508 47.9428 47.4569 47.9428 47.4629 47.9428L54.6434 47.914L54.6534 47.914C58.2978 47.914 61.793 46.4663 64.37 43.8893C66.947 41.3123 68.3947 37.8171 68.3947 34.1727C68.3947 33.3727 68.3249 32.5798 68.1888 31.8023C68.1868 31.7913 68.1848 31.7804 68.183 31.7695C67.6942 29.0177 66.3733 26.4595 64.37 24.4562C61.7938 21.88 58.3001 20.4324 54.657 20.4314C54.6558 20.4314 54.6546 20.4314 54.6534 20.4314L27.1739 20.5127L27.1667 20.5127C23.9358 20.5129 20.8082 21.6512 18.333 23.7278C15.8851 25.7814 14.2299 28.6228 13.6502 31.7627ZM70.5646 44.0699C69.8145 45.2759 68.9238 46.4021 67.9033 47.4226C64.3905 50.9354 59.6265 52.9094 54.6588 52.9109C54.657 52.9109 54.6552 52.9109 54.6534 52.9109L53.0576 52.9173L62.7664 63.6958C63.6998 64.6113 64.8974 65.2112 66.1906 65.4102C67.5036 65.6122 68.8467 65.3904 70.025 64.777C71.2033 64.1636 72.1554 63.1906 72.7429 61.9992C73.3276 60.8136 73.5211 59.4732 73.2957 58.171L70.5646 44.0699ZM28.4143 26.7587C29.7941 26.7587 30.9127 27.8773 30.9127 29.2571V31.7556H33.4111C34.791 31.7556 35.9095 32.8741 35.9095 34.254C35.9095 35.6338 34.791 36.7524 33.4111 36.7524H30.9127V39.2508C30.9127 40.6307 29.7941 41.7492 28.4143 41.7492C27.0344 41.7492 25.9159 40.6307 25.9159 39.2508V36.7524H23.4174C22.0376 36.7524 20.919 35.6338 20.919 34.254C20.919 32.8741 22.0376 31.7556 23.4174 31.7556H25.9159V29.2571C25.9159 27.8773 27.0344 26.7587 28.4143 26.7587ZM45.9032 34.254C45.9032 32.8741 47.0218 31.7556 48.4016 31.7556H58.3953C59.7752 31.7556 60.8937 32.8741 60.8937 34.254C60.8937 35.6338 59.7752 36.7524 58.3953 36.7524H48.4016C47.0218 36.7524 45.9032 35.6338 45.9032 34.254Z" fill="#1A1A1A"/>
</svg>
