<svg width="85" height="87" viewBox="0 0 85 87" fill="none" xmlns="http://www.w3.org/2000/svg">
<path d="M44.679 63.6416L61.444 74.2632C63.587 75.6209 66.2477 73.6016 65.6118 71.1001L60.768 52.0458C60.6316 51.5151 60.6477 50.9567 60.8146 50.4348C60.9815 49.9128 61.2922 49.4486 61.7112 49.0954L76.745 36.5825C78.7204 34.9384 77.7008 31.66 75.1629 31.4953L55.5297 30.2211C55.0009 30.1833 54.4937 29.9961 54.0672 29.6812C53.6406 29.3664 53.3123 28.9368 53.1205 28.4425L45.7981 10.003C45.5991 9.47844 45.2452 9.02681 44.7834 8.70812C44.3216 8.38943 43.7738 8.21875 43.2127 8.21875C42.6517 8.21875 42.1039 8.38943 41.6421 8.70812C41.1803 9.02681 40.8264 9.47844 40.6273 10.003L33.305 28.4425C33.1132 28.9368 32.7849 29.3664 32.3583 29.6812C31.9318 29.9961 31.4246 30.1833 30.8958 30.2211L11.2626 31.4953C8.72467 31.66 7.7051 34.9384 9.68047 36.5825L24.7143 49.0954C25.1332 49.4486 25.444 49.9128 25.6109 50.4348C25.7777 50.9567 25.7939 51.5151 25.6575 52.0458L21.1654 69.7165C20.4023 72.7183 23.5952 75.1415 26.1667 73.5123L41.7465 63.6416C42.1847 63.3626 42.6933 63.2145 43.2127 63.2145C43.7322 63.2145 44.2408 63.3626 44.679 63.6416V63.6416Z" stroke="#1A1A1A" stroke-width="6.07827" stroke-linecap="round" stroke-linejoin="round"/>
</svg>
