<svg width="84" height="85" viewBox="0 0 84 85" fill="none" xmlns="http://www.w3.org/2000/svg">
<path d="M40.5755 8.59503C40.1414 8.8362 31.2664 13.547 20.8801 19.0778C6.76372 26.6023 1.85997 29.2712 1.4741 29.7053C0.573738 30.686 0.573738 32.0848 1.4741 33.0334C1.77958 33.355 3.53207 34.384 5.87944 35.638L9.78637 37.696V46.1369C9.80244 53.6774 9.8346 54.6582 10.0758 55.3334C10.9761 57.8577 16.2497 62.874 20.9123 65.6394C29.2567 70.6074 39.7395 72.3599 49.9168 70.4949C52.3928 70.0286 55.335 69.2086 57.2644 68.4369L58.6471 67.8742L58.6953 73.2281C58.7435 78.357 58.7596 78.6142 59.0812 79.0322C59.7082 79.8844 60.2227 80.1416 61.2356 80.1416C62.2485 80.1416 62.763 79.8844 63.39 79.0322C63.7116 78.6142 63.7277 78.3409 63.8081 71.8615L63.8884 65.1409L65.657 63.8547C69.1298 61.3305 72.667 57.7612 73.6477 55.8158L74.0175 55.0601L74.0657 46.3781L74.114 37.696L78.0048 35.638C80.3361 34.384 82.1047 33.355 82.4102 33.0334C83.2784 32.117 83.3105 30.6378 82.4906 29.7214C82.2012 29.4159 75.143 25.5572 62.4414 18.7884C46.862 10.4761 42.6817 8.30563 42.1029 8.24131C41.5402 8.177 41.2025 8.25739 40.5755 8.59503ZM58.4702 22.5024C67.506 27.3258 74.9018 31.297 74.9018 31.3452C74.9018 31.3935 71.8309 33.0816 68.0687 35.0914L61.2356 38.725L52.023 33.8212C45.7044 30.4288 42.6174 28.8692 42.1833 28.821C39.8681 28.5316 38.4372 31.5703 40.1414 33.146C40.3826 33.371 43.9519 35.3486 48.0839 37.5513C52.232 39.754 55.6083 41.5868 55.6083 41.6351C55.6083 41.6833 52.5375 43.3715 48.7752 45.3812L41.9421 49.0148L25.4623 40.2363C16.3944 35.3969 8.98247 31.4095 8.98247 31.3452C8.98247 31.2488 41.8135 13.6917 41.9582 13.7239C42.0064 13.7239 49.4505 17.679 58.4702 22.5024ZM28.0508 47.4553C40.6559 54.1919 41.09 54.417 41.9421 54.417C42.7943 54.417 43.1319 54.2562 50.0615 50.5422C54.0488 48.4039 57.602 46.5067 57.9879 46.3137L58.6631 45.9761V54.0633V62.1665L57.2644 62.8257C54.3543 64.1923 50.994 65.1731 47.489 65.6876C45.1095 66.0413 39.2089 66.0895 37.0384 65.7841C28.4046 64.5461 21.2499 60.8964 16.105 55.0923L14.9313 53.7739V47.1337C14.9313 43.5001 14.9634 40.5096 14.9956 40.5096C15.0278 40.5096 20.9123 43.6448 28.0508 47.4553ZM68.953 47.1337V53.7739L67.7793 55.0762C66.7825 56.2016 65.8982 57.0538 64.1778 58.5812L63.8081 58.8866V51.0246V43.1625L66.268 41.8441C67.6024 41.1367 68.76 40.5257 68.8404 40.5257C68.9047 40.5096 68.953 43.5001 68.953 47.1337Z" fill="#1A1A1A"/>
</svg>
